<svg xmlns="http://www.w3.org/2000/svg" xmlns:xlink="http://www.w3.org/1999/xlink" width="19px" height="14px" viewBox="0 0 18 14" version="1.1">
<rect x="0" y="0" width="18" height="14" style="fill:rgb(0.392157%,12.941176%,41.176471%);fill-opacity:1;stroke:none;"/>
<path style=" stroke:none;fill-rule:nonzero;fill:rgb(100%,100%,100%);fill-opacity:1;" d="M 2.109375 0 L 8.972656 5.277344 L 15.804688 0 L 18 0 L 18 1.808594 L 11.25 7.027344 L 18 12.222656 L 18 14 L 15.75 14 L 9 8.777344 L 2.277344 14 L 0 14 L 0 12.25 L 6.722656 7.058594 L 0 1.867188 L 0 0 Z M 2.109375 0 "/>
<path style=" stroke:none;fill-rule:nonzero;fill:rgb(78.431373%,6.27451%,18.039216%);fill-opacity:1;" d="M 11.925781 8.195312 L 18 12.832031 L 18 14 L 10.378906 8.195312 Z M 6.75 8.777344 L 6.917969 9.800781 L 1.519531 14 L 0 14 Z M 18 0 L 18 0.0859375 L 10.996094 5.570312 L 11.054688 4.289062 L 16.59375 0 Z M 0 0 L 6.722656 5.132812 L 5.035156 5.132812 L 0 1.226562 Z M 0 0 "/>
<path style=" stroke:none;fill-rule:nonzero;fill:rgb(100%,100%,100%);fill-opacity:1;" d="M 6.777344 0 L 6.777344 14 L 11.277344 14 L 11.277344 0 Z M 0 4.667969 L 0 9.332031 L 18 9.332031 L 18 4.667969 Z M 0 4.667969 "/>
<path style=" stroke:none;fill-rule:nonzero;fill:rgb(78.431373%,6.27451%,18.039216%);fill-opacity:1;" d="M 0 5.628906 L 0 8.429688 L 18 8.429688 L 18 5.628906 Z M 7.679688 0 L 7.679688 14 L 10.378906 14 L 10.378906 0 Z M 7.679688 0 "/>
</svg>
